<svg width="56" height="57" viewBox="0 0 56 57" fill="none" xmlns="http://www.w3.org/2000/svg">
  <rect width="56" height="57" fill="white"/>
  <path d="M4 28.5H21" stroke="#9FE6F0" stroke-width="1.2" stroke-linecap="round"/>
  <ellipse cx="23" cy="28.5" rx="5.2" ry="17.3" stroke="#FF8B83" stroke-width="1.1"/>
  <path d="M25 28.5C29.6 22.9 34.5 17.9 42 13.8" stroke="#F49C50" stroke-width="2" stroke-linecap="round"/>
  <path d="M25 28.5C31.8 29.7 40.2 33.8 52 39.6" stroke="#81B9FF" stroke-width="2" stroke-linecap="round"/>
  <path d="M25 28.5C31.6 33.8 38.1 41.2 49.8 50.2" stroke="#F68BD3" stroke-width="2" stroke-linecap="round"/>
  <path d="M25 28.5C24.8 23.4 25.9 17.6 29.5 11.4" stroke="#76DDE3" stroke-width="1.7" stroke-linecap="round"/>
  <circle cx="30" cy="11" r="2" fill="#67D5D5"/>
  <circle cx="43" cy="13.4" r="2" fill="#F49C50"/>
  <circle cx="52" cy="7.5" r="2" fill="#49C884"/>
  <path d="M43.6 13L52 8" stroke="#49C884" stroke-width="1.6" stroke-linecap="round"/>
  <circle cx="52" cy="39.6" r="2" fill="#5F8FF4"/>
  <circle cx="49.8" cy="50.2" r="2" fill="#E87AD0"/>
</svg>
